<svg width="128" height="128" viewBox="0 0 128 128" fill="none" xmlns="http://www.w3.org/2000/svg">
<rect width="128" height="128" fill="black"/>
<path d="M40.4844 92H69.1172C81.1875 92 89 85.4766 89 75.6328V75.5547C89 68.5234 83.0234 62.625 75.7578 62.4297V61.6484C81.8906 60.8672 86.4609 55.7891 86.4609 49.7344V49.6562C86.4609 40.9062 79.7422 35.6328 68.2188 35.6328H40.4844V92ZM63.6875 46.9609C67.9062 46.9609 70.3672 49.1094 70.3672 52.5469V52.625C70.3672 55.9844 67.7109 58.2109 63.4922 58.2109H57.0469V46.9609H63.6875ZM64.2344 67.7031C69.1953 67.7031 72.125 70.0078 72.125 74.0312V74.1094C72.125 78.3281 69.2734 80.6719 64.1172 80.6719H57.0469V67.7031H64.2344Z" fill="white"/>
</svg>
